<svg id="Layer_1" data-name="Layer 1" xmlns="http://www.w3.org/2000/svg" viewBox="0 0 317.35 105.4"><defs><style>.cls-1,.cls-3{font-size:12px;}.cls-1,.cls-5{font-family:DroidSansMono, Droid Sans Mono;}.cls-2{fill:#fcd71e;}.cls-3{font-family:DroidSans, Droid Sans;}.cls-4{fill:none;stroke:#000;stroke-miterlimit:10;}</style></defs><title>sign_extend</title><text class="cls-1" transform="translate(33.72 69.31)">0</text><rect class="cls-2" x="30.05" y="43.96" width="55.29" height="13.01"/><text class="cls-1" transform="translate(103.37 69.31)">0</text><text class="cls-1" transform="translate(89.44 69.31)">0</text><text class="cls-1" transform="translate(61.58 69.31)">0</text><text class="cls-1" transform="translate(117.29 69.31)">0</text><text class="cls-1" transform="translate(75.51 69.31)">0</text><text class="cls-1" transform="translate(47.65 69.31)">0</text><text class="cls-1" transform="translate(131.22 69.31)">0</text><text class="cls-1" transform="translate(103.37 53.98)">0</text><text class="cls-1" transform="translate(117.29 53.98)">0</text><text class="cls-1" transform="translate(131.22 53.98)">0</text><text class="cls-1" transform="translate(33.72 53.98)">0</text><text class="cls-1" transform="translate(61.58 53.98)">0</text><text class="cls-1" transform="translate(75.51 53.98)">0</text><text class="cls-1" transform="translate(47.65 53.98)">0</text><text class="cls-1" transform="translate(89.44 53.98)">1</text><text class="cls-1" transform="translate(19.3 69.31)">+</text><text class="cls-1" transform="translate(89.44 84.65)">1</text><text class="cls-1" transform="translate(33.72 84.65)">0</text><text class="cls-1" transform="translate(103.37 84.65)">0</text><text class="cls-1" transform="translate(61.58 84.65)">0</text><text class="cls-1" transform="translate(117.29 84.65)">0</text><text class="cls-1" transform="translate(75.51 84.65)">0</text><text class="cls-1" transform="translate(47.65 84.65)">0</text><text class="cls-1" transform="translate(131.22 84.65)">0</text><text class="cls-1" transform="translate(19.3 82.65)">=</text><text class="cls-1" transform="translate(103.37 14.31)">0</text><text class="cls-1" transform="translate(117.29 14.31)">0</text><text class="cls-1" transform="translate(131.22 14.31)">0</text><text class="cls-1" transform="translate(89.44 14.32)">1</text><text class="cls-3" transform="translate(0 14.32)">Unsigned<tspan x="0" y="14.4">sign extend</tspan></text><path class="cls-4" d="M92.52,14.91a23.86,23.86,0,0,0-17.29,6c-6,5.47-6.37,13.18-5.67,18.72" transform="translate(-3.83 -4.45)"/><polygon points="67.24 42.06 61.3 33.11 65.75 34.63 69.27 31.51 67.24 42.06"/><line class="cls-4" x1="139.22" y1="73.31" x2="19.3" y2="73.31"/><text class="cls-1" transform="translate(54.39 102.15)">0</text><path class="cls-4" d="M38,90.14a6.18,6.18,0,0,0,3.7,3.38c5.57,2.29,12-2.94,16.94-.51.91.45,2.11,1,3,4H62a5.62,5.62,0,0,1,3.7-4c5.57-2.29,12,3.25,16.94.82a6.8,6.8,0,0,0,3-3.53" transform="translate(-3.83 -4.45)"/><text class="cls-1" transform="translate(109.39 102.15)">8</text><path class="cls-4" d="M93,90.14a6.18,6.18,0,0,0,3.7,3.38c5.57,2.29,12-2.94,16.94-.51.91.45,2.11,1,3,4H117a5.62,5.62,0,0,1,3.7-4c5.57-2.29,12,3.25,16.94.82a6.8,6.8,0,0,0,3-3.53" transform="translate(-3.83 -4.45)"/><text class="cls-3" transform="translate(19.3 102.15)">Hex<tspan class="cls-5" x="20.84" y="0">:</tspan></text><text class="cls-1" transform="translate(211.85 65.28)">0</text><rect class="cls-2" x="208.17" y="39.93" width="55.29" height="13.01"/><text class="cls-1" transform="translate(281.49 65.28)">0</text><text class="cls-1" transform="translate(267.56 65.28)">0</text><text class="cls-1" transform="translate(239.71 65.28)">0</text><text class="cls-1" transform="translate(295.42 65.28)">0</text><text class="cls-1" transform="translate(253.64 65.28)">0</text><text class="cls-1" transform="translate(225.78 65.28)">0</text><text class="cls-1" transform="translate(309.35 65.28)">0</text><text class="cls-1" transform="translate(281.49 49.95)">0</text><text class="cls-1" transform="translate(295.42 49.95)">0</text><text class="cls-1" transform="translate(309.35 49.95)">0</text><text class="cls-1" transform="translate(267.56 49.95)">1</text><text class="cls-1" transform="translate(197.42 65.28)">+</text><text class="cls-1" transform="translate(267.56 80.62)">1</text><text class="cls-1" transform="translate(281.49 80.62)">0</text><text class="cls-1" transform="translate(295.42 80.62)">0</text><text class="cls-1" transform="translate(309.35 80.62)">0</text><text class="cls-1" transform="translate(197.42 78.62)">=</text><rect class="cls-2" x="267.04" y="0.27" width="8.25" height="13.01"/><text class="cls-1" transform="translate(281.49 10.28)">0</text><text class="cls-1" transform="translate(295.42 10.28)">0</text><text class="cls-1" transform="translate(309.35 10.28)">0</text><text class="cls-1" transform="translate(267.56 10.28)">1</text><line class="cls-4" x1="317.35" y1="69.28" x2="197.42" y2="69.28"/><text class="cls-1" transform="translate(233.31 98.12)">F</text><text class="cls-1" transform="translate(211.85 49.95)">1</text><text class="cls-1" transform="translate(225.78 49.95)">1</text><text class="cls-1" transform="translate(253.64 49.95)">1</text><text class="cls-1" transform="translate(239.71 49.95)">1</text><text class="cls-1" transform="translate(211.85 80.62)">1</text><text class="cls-1" transform="translate(225.78 80.62)">1</text><text class="cls-1" transform="translate(253.64 80.62)">1</text><text class="cls-1" transform="translate(239.71 80.62)">1</text><path class="cls-4" d="M216.93,86.11a6.18,6.18,0,0,0,3.7,3.38c5.57,2.29,12-2.93,16.94-.49.91.45,2.11,1,3,4h.38a5.64,5.64,0,0,1,3.7-4c5.57-2.29,12,3.25,16.94.81a6.81,6.81,0,0,0,3-3.53" transform="translate(-3.83 -4.45)"/><text class="cls-1" transform="translate(288.31 98.12)">8</text><path class="cls-4" d="M271.93,86.11a6.18,6.18,0,0,0,3.7,3.38c5.57,2.29,12-2.93,16.94-.49.91.45,2.11,1,3,4h.38a5.64,5.64,0,0,1,3.7-4c5.57-2.29,12,3.25,16.94.81a6.81,6.81,0,0,0,3-3.53" transform="translate(-3.83 -4.45)"/><text class="cls-3" transform="translate(197.42 98.12)">Hex<tspan class="cls-5" x="20.84" y="0">:</tspan></text><text class="cls-3" transform="translate(177.87 10.28)">Signed<tspan x="0" y="14.4">sign extend</tspan></text><path class="cls-4" d="M270.39,10.88a23.86,23.86,0,0,0-17.29,6c-6,5.47-6.37,13.18-5.67,18.72" transform="translate(-3.83 -4.45)"/><polygon points="245.11 38.03 239.17 29.08 243.62 30.59 247.14 27.48 245.11 38.03"/></svg>