<svg id="Layer_1" data-name="Layer 1" xmlns="http://www.w3.org/2000/svg" viewBox="0 0 941.59 349.59"><defs><style>.cls-1{fill:#fff;stroke:#fff;stroke-width:1.59px;}.cls-1,.cls-5{stroke-miterlimit:10;}.cls-2{fill:#e6e6e6;}.cls-3{font-size:36px;font-family:DroidSans-Bold, Droid Sans;font-weight:700;}.cls-4{fill:#ccc;}.cls-5{fill:none;stroke:#000;stroke-width:4px;}.cls-6{letter-spacing:-0.06em;}</style></defs><title>testbench</title><rect class="cls-1" x="0.79" y="0.79" width="940" height="348"/><rect class="cls-2" x="486.74" y="3.74" width="452.11" height="343.11" rx="26.78" ry="26.78"/><path d="M912.07,5.69A24.86,24.86,0,0,1,936.9,30.52V320.07a24.86,24.86,0,0,1-24.83,24.83H513.52a24.86,24.86,0,0,1-24.83-24.83V30.52A24.86,24.86,0,0,1,513.52,5.69H912.07m0-3.89H513.52a28.72,28.72,0,0,0-28.72,28.72V320.07a28.72,28.72,0,0,0,28.72,28.72H912.07a28.72,28.72,0,0,0,28.72-28.72V30.52A28.72,28.72,0,0,0,912.07,1.79Z"/><text class="cls-3" transform="translate(516.26 51.79)">MyModuleTb(sim)</text><rect class="cls-4" x="593.7" y="142.7" width="315.18" height="149.18" rx="26.24" ry="26.24"/><path d="M882.64,144.61A24.36,24.36,0,0,1,907,168.95v96.7A24.36,24.36,0,0,1,882.64,290H619.95a24.36,24.36,0,0,1-24.33-24.33v-96.7a24.36,24.36,0,0,1,24.33-24.33h262.7m0-3.82H619.95a28.15,28.15,0,0,0-28.15,28.15v96.7a28.15,28.15,0,0,0,28.15,28.15h262.7a28.15,28.15,0,0,0,28.15-28.15v-96.7a28.15,28.15,0,0,0-28.15-28.15Z"/><text class="cls-3" transform="translate(623.26 190.79)">MyModule(rtl)</text><text class="cls-3" transform="translate(1.26 51.79)">MyModuleTb.vhd</text><text class="cls-3" transform="translate(1.26 120.79)">MyModule.vhd</text><path class="cls-5" d="M484.79,58.79"/><path class="cls-5" d="M489.79,51.79"/><line class="cls-5" x1="306.79" y1="38.79" x2="453.55" y2="38.79"/><polygon points="481.79 38.79 442 55.06 451.44 38.79 442 22.54 481.79 38.79"/><line class="cls-5" x1="265.79" y1="109.79" x2="561.03" y2="164.64"/><polygon points="588.79 169.79 546.7 178.51 558.95 164.25 552.64 146.54 588.79 169.79"/><text class="cls-3" transform="translate(516.26 91.79)"><tspan class="cls-6">T</tspan><tspan x="17.6" y="0">estbench</tspan></text><text class="cls-3" transform="translate(623.26 230.79)">DUT</text><line class="cls-5" x1="851.79" y1="141.79" x2="851.79" y2="119.79"/><line class="cls-5" x1="811.59" y1="141.79" x2="811.59" y2="119.79"/><line class="cls-5" x1="771.39" y1="141.79" x2="771.39" y2="119.79"/><line class="cls-5" x1="731.19" y1="141.79" x2="731.19" y2="119.79"/><line class="cls-5" x1="690.99" y1="141.79" x2="690.99" y2="119.79"/><line class="cls-5" x1="650.79" y1="141.79" x2="650.79" y2="119.79"/><line class="cls-5" x1="851.79" y1="314.79" x2="851.79" y2="292.79"/><line class="cls-5" x1="811.59" y1="314.79" x2="811.59" y2="292.79"/><line class="cls-5" x1="771.39" y1="314.79" x2="771.39" y2="292.79"/><line class="cls-5" x1="731.19" y1="314.79" x2="731.19" y2="292.79"/><line class="cls-5" x1="690.99" y1="314.79" x2="690.99" y2="292.79"/><line class="cls-5" x1="650.79" y1="314.79" x2="650.79" y2="292.79"/></svg>