<svg id="Layer_1" data-name="Layer 1" xmlns="http://www.w3.org/2000/svg" viewBox="0 0 485.15 224"><defs><style>.cls-1,.cls-3{fill:none;}.cls-1{stroke:#000;stroke-miterlimit:10;}.cls-2{font-size:18px;font-family:DroidSans-Bold, Droid Sans;font-weight:700;}.cls-4{fill:#ff2020;}</style></defs><title>Artboard 1</title><polyline class="cls-1" points="483.65 13.5 438.65 13.5 438.65 39.5 393.65 39.5 393.65 13.5 348.65 13.5 348.65 39.5 303.65 39.5 303.65 13.5 258.65 13.5 258.65 39.5 213.65 39.5 213.65 13.5 168.65 13.5 168.65 39.5 124.15 39.5"/><polyline class="cls-1" points="483.65 59.5 443.65 59.5 443.65 85.5 398.65 85.5 398.65 59.5 353.65 59.5 353.65 85.5 308.65 85.5 308.65 59.5 263.65 59.5 263.65 85.5 218.65 85.5 218.65 59.5 173.65 59.5 173.65 85.5 124.15 85.5"/><polyline class="cls-1" points="484.15 177.5 365.65 177.5 365.65 151.5 183.65 151.5 183.65 177.5 124.15 177.5"/><polyline class="cls-1" points="485.15 197.5 188.65 197.5 188.65 223.5 124.15 223.5"/><polyline class="cls-1" points="484.15 131.5 451.65 131.5 451.65 105.5 360.65 105.5 360.65 131.5 269.65 131.5 269.65 105.5 178.65 105.5 178.65 131.5 124.15 131.5"/><text class="cls-2" transform="translate(10.49 31.58)">Clock signal</text><text class="cls-2" transform="translate(0 77.58)">Counter bit 0</text><text class="cls-2" transform="translate(0 123.58)">Counter bit 1</text><text class="cls-2" transform="translate(0 169.58)">Counter bit 2</text><text class="cls-2" transform="translate(0 215.58)">Counter bit 3</text><rect class="cls-3" x="161.15" width="15" height="13.18"/><rect class="cls-4" x="167.68" y="9.76" width="1.5" height="2.45"/><rect class="cls-4" x="167.68" y="5.37" width="1.5" height="2.45"/><rect class="cls-4" x="167.68" y="1" width="1.5" height="2.45"/><rect class="cls-3" x="161.15" y="13.18" width="15" height="13.18"/><rect class="cls-4" x="167.68" y="22.93" width="1.5" height="2.45"/><rect class="cls-4" x="167.68" y="18.55" width="1.5" height="2.45"/><rect class="cls-4" x="167.68" y="14.17" width="1.5" height="2.45"/><rect class="cls-3" x="161.15" y="26.35" width="15" height="13.18"/><rect class="cls-4" x="167.68" y="36.11" width="1.5" height="2.45"/><rect class="cls-4" x="167.68" y="31.72" width="1.5" height="2.45"/><rect class="cls-4" x="167.68" y="27.35" width="1.5" height="2.45"/><rect class="cls-3" x="161.15" y="39.53" width="15" height="13.18"/><rect class="cls-4" x="167.68" y="49.29" width="1.5" height="2.45"/><rect class="cls-4" x="167.68" y="44.9" width="1.5" height="2.45"/><rect class="cls-4" x="167.68" y="40.53" width="1.5" height="2.45"/><rect class="cls-3" x="161.15" y="52.71" width="15" height="13.18"/><rect class="cls-4" x="167.68" y="62.46" width="1.5" height="2.45"/><rect class="cls-4" x="167.68" y="58.08" width="1.5" height="2.45"/><rect class="cls-4" x="167.68" y="53.7" width="1.5" height="2.45"/><rect class="cls-3" x="161.15" y="65.88" width="15" height="13.18"/><rect class="cls-4" x="167.68" y="75.64" width="1.5" height="2.45"/><rect class="cls-4" x="167.68" y="71.25" width="1.5" height="2.45"/><rect class="cls-4" x="167.68" y="66.88" width="1.5" height="2.45"/><rect class="cls-3" x="161.15" y="79.06" width="15" height="13.18"/><rect class="cls-4" x="167.68" y="88.82" width="1.5" height="2.45"/><rect class="cls-4" x="167.68" y="84.43" width="1.5" height="2.45"/><rect class="cls-4" x="167.68" y="80.06" width="1.5" height="2.45"/><rect class="cls-3" x="161.15" y="92.24" width="15" height="13.18"/><rect class="cls-4" x="167.68" y="101.99" width="1.5" height="2.45"/><rect class="cls-4" x="167.68" y="97.61" width="1.5" height="2.45"/><rect class="cls-4" x="167.68" y="93.23" width="1.5" height="2.45"/><rect class="cls-3" x="161.15" y="105.41" width="15" height="13.18"/><rect class="cls-4" x="167.68" y="115.17" width="1.5" height="2.45"/><rect class="cls-4" x="167.68" y="110.78" width="1.5" height="2.45"/><rect class="cls-4" x="167.68" y="106.41" width="1.5" height="2.45"/><rect class="cls-3" x="161.15" y="118.59" width="15" height="13.18"/><rect class="cls-4" x="167.68" y="128.35" width="1.5" height="2.45"/><rect class="cls-4" x="167.68" y="123.96" width="1.5" height="2.45"/><rect class="cls-4" x="167.68" y="119.59" width="1.5" height="2.45"/><rect class="cls-3" x="161.15" y="131.76" width="15" height="13.18"/><rect class="cls-4" x="167.68" y="141.52" width="1.5" height="2.45"/><rect class="cls-4" x="167.68" y="137.14" width="1.5" height="2.45"/><rect class="cls-4" x="167.68" y="132.76" width="1.5" height="2.45"/><rect class="cls-3" x="161.15" y="144.94" width="15" height="13.18"/><rect class="cls-4" x="167.68" y="154.7" width="1.5" height="2.45"/><rect class="cls-4" x="167.68" y="150.31" width="1.5" height="2.45"/><rect class="cls-4" x="167.68" y="145.94" width="1.5" height="2.45"/><rect class="cls-3" x="161.15" y="158.12" width="15" height="13.18"/><rect class="cls-4" x="167.68" y="167.87" width="1.5" height="2.45"/><rect class="cls-4" x="167.68" y="163.49" width="1.5" height="2.45"/><rect class="cls-4" x="167.68" y="159.12" width="1.5" height="2.45"/><rect class="cls-3" x="161.15" y="171.29" width="15" height="13.18"/><rect class="cls-4" x="167.68" y="181.05" width="1.5" height="2.45"/><rect class="cls-4" x="167.68" y="176.66" width="1.5" height="2.45"/><rect class="cls-4" x="167.68" y="172.29" width="1.5" height="2.45"/><rect class="cls-3" x="161.15" y="184.47" width="15" height="13.18"/><rect class="cls-4" x="167.68" y="194.23" width="1.5" height="2.45"/><rect class="cls-4" x="167.68" y="189.84" width="1.5" height="2.45"/><rect class="cls-4" x="167.68" y="185.47" width="1.5" height="2.45"/><rect class="cls-3" x="161.15" y="197.65" width="15" height="13.18"/><rect class="cls-4" x="167.68" y="207.4" width="1.5" height="2.45"/><rect class="cls-4" x="167.68" y="203.02" width="1.5" height="2.45"/><rect class="cls-4" x="167.68" y="198.65" width="1.5" height="2.45"/><rect class="cls-3" x="161.15" y="210.82" width="15" height="13.18"/><rect class="cls-4" x="167.68" y="220.58" width="1.5" height="2.45"/><rect class="cls-4" x="167.68" y="216.19" width="1.5" height="2.45"/><rect class="cls-4" x="167.68" y="211.82" width="1.5" height="2.45"/><rect class="cls-3" x="181.15" width="15" height="13.18"/><rect class="cls-4" x="187.68" y="9.76" width="1.5" height="2.45"/><rect class="cls-4" x="187.68" y="5.37" width="1.5" height="2.45"/><rect class="cls-4" x="187.68" y="1" width="1.5" height="2.45"/><rect class="cls-3" x="181.15" y="13.18" width="15" height="13.18"/><rect class="cls-4" x="187.68" y="22.93" width="1.5" height="2.45"/><rect class="cls-4" x="187.68" y="18.55" width="1.5" height="2.45"/><rect class="cls-4" x="187.68" y="14.17" width="1.5" height="2.45"/><rect class="cls-3" x="181.15" y="26.35" width="15" height="13.18"/><rect class="cls-4" x="187.68" y="36.11" width="1.5" height="2.45"/><rect class="cls-4" x="187.68" y="31.72" width="1.5" height="2.45"/><rect class="cls-4" x="187.68" y="27.35" width="1.5" height="2.45"/><rect class="cls-3" x="181.15" y="39.53" width="15" height="13.18"/><rect class="cls-4" x="187.68" y="49.29" width="1.5" height="2.45"/><rect class="cls-4" x="187.68" y="44.9" width="1.5" height="2.45"/><rect class="cls-4" x="187.68" y="40.53" width="1.5" height="2.45"/><rect class="cls-3" x="181.15" y="52.71" width="15" height="13.18"/><rect class="cls-4" x="187.68" y="62.46" width="1.5" height="2.45"/><rect class="cls-4" x="187.68" y="58.08" width="1.5" height="2.45"/><rect class="cls-4" x="187.68" y="53.7" width="1.5" height="2.45"/><rect class="cls-3" x="181.15" y="65.88" width="15" height="13.18"/><rect class="cls-4" x="187.68" y="75.64" width="1.5" height="2.45"/><rect class="cls-4" x="187.68" y="71.25" width="1.5" height="2.45"/><rect class="cls-4" x="187.68" y="66.88" width="1.5" height="2.45"/><rect class="cls-3" x="181.15" y="79.06" width="15" height="13.18"/><rect class="cls-4" x="187.68" y="88.82" width="1.5" height="2.45"/><rect class="cls-4" x="187.68" y="84.43" width="1.5" height="2.45"/><rect class="cls-4" x="187.68" y="80.06" width="1.5" height="2.45"/><rect class="cls-3" x="181.15" y="92.24" width="15" height="13.18"/><rect class="cls-4" x="187.68" y="101.99" width="1.5" height="2.45"/><rect class="cls-4" x="187.68" y="97.61" width="1.5" height="2.45"/><rect class="cls-4" x="187.68" y="93.23" width="1.5" height="2.45"/><rect class="cls-3" x="181.15" y="105.41" width="15" height="13.18"/><rect class="cls-4" x="187.68" y="115.17" width="1.5" height="2.45"/><rect class="cls-4" x="187.68" y="110.78" width="1.5" height="2.45"/><rect class="cls-4" x="187.68" y="106.41" width="1.5" height="2.45"/><rect class="cls-3" x="181.15" y="118.59" width="15" height="13.18"/><rect class="cls-4" x="187.68" y="128.35" width="1.5" height="2.45"/><rect class="cls-4" x="187.68" y="123.96" width="1.5" height="2.45"/><rect class="cls-4" x="187.68" y="119.59" width="1.5" height="2.45"/><rect class="cls-3" x="181.15" y="131.76" width="15" height="13.18"/><rect class="cls-4" x="187.68" y="141.52" width="1.5" height="2.45"/><rect class="cls-4" x="187.68" y="137.14" width="1.5" height="2.45"/><rect class="cls-4" x="187.68" y="132.76" width="1.5" height="2.45"/><rect class="cls-3" x="181.15" y="144.94" width="15" height="13.18"/><rect class="cls-4" x="187.68" y="154.7" width="1.5" height="2.45"/><rect class="cls-4" x="187.68" y="150.31" width="1.5" height="2.45"/><rect class="cls-4" x="187.68" y="145.94" width="1.5" height="2.45"/><rect class="cls-3" x="181.15" y="158.12" width="15" height="13.18"/><rect class="cls-4" x="187.68" y="167.87" width="1.5" height="2.45"/><rect class="cls-4" x="187.68" y="163.49" width="1.5" height="2.45"/><rect class="cls-4" x="187.68" y="159.12" width="1.5" height="2.45"/><rect class="cls-3" x="181.15" y="171.29" width="15" height="13.18"/><rect class="cls-4" x="187.68" y="181.05" width="1.5" height="2.45"/><rect class="cls-4" x="187.68" y="176.66" width="1.5" height="2.45"/><rect class="cls-4" x="187.68" y="172.29" width="1.5" height="2.45"/><rect class="cls-3" x="181.15" y="184.47" width="15" height="13.18"/><rect class="cls-4" x="187.68" y="194.23" width="1.5" height="2.45"/><rect class="cls-4" x="187.68" y="189.84" width="1.5" height="2.45"/><rect class="cls-4" x="187.68" y="185.47" width="1.5" height="2.45"/><rect class="cls-3" x="181.15" y="197.65" width="15" height="13.18"/><rect class="cls-4" x="187.68" y="207.4" width="1.5" height="2.45"/><rect class="cls-4" x="187.68" y="203.02" width="1.5" height="2.45"/><rect class="cls-4" x="187.68" y="198.65" width="1.5" height="2.45"/><rect class="cls-3" x="181.15" y="210.82" width="15" height="13.18"/><rect class="cls-4" x="187.68" y="220.58" width="1.5" height="2.45"/><rect class="cls-4" x="187.68" y="216.19" width="1.5" height="2.45"/><rect class="cls-4" x="187.68" y="211.82" width="1.5" height="2.45"/></svg>